<svg xmlns="http://www.w3.org/2000/svg" viewBox="0 0 1754.26155 431.8302">
  <defs>
    <style>
      .cls-1 {
        fill: #141319;
      }

      .cls-2 {
        fill: #1ee9b6;
      }
    </style>
  </defs>
  <title>Ресурс 2</title>
  <g id="Слой_2" data-name="Слой 2">
    <g id="Слой_1-2" data-name="Слой 1">
      <g>
        <path class="cls-1" d="M64.21725,285.36044q-9.75285,11.69883-24.05783,11.7019a30.0616,30.0616,0,0,1-22.10495-9.10113,30.058,30.058,0,0,1-9.10267-22.108q0-11.70344,6.50191-18.85477L173.44778,34.3883q11.04786-14.949,29.25782-24.38254a85.4402,85.4402,0,0,1,76.07157-.9726A75.90907,75.90907,0,0,1,307.384,32.437L465.37811,243.74823A44.89762,44.89762,0,0,1,471.88,253.825a28.02618,28.02618,0,0,1,2.60077,12.02815,31.07679,31.07679,0,0,1-31.20763,31.20916q-15.60458,0-24.70725-12.3544L267.07373,82.504A142.0503,142.0503,0,0,0,255.695,71.12524q-6.82585-6.17258-13.97949-6.1772-7.16056,0-13.97795,6.1772A83.76025,83.76025,0,0,0,217.0098,82.504Z"/>
        <circle class="cls-2" cx="241.71629" cy="223.344" r="50.88555"/>
        <path class="cls-1" d="M1128.808,264.35787a32.70376,32.70376,0,1,1-65.40732,0V115.8267q0-27.92942-3.4059-27.93425-2.731,0-19.07761,18.39706L891.0233,276.62366a55.31445,55.31445,0,0,1-21.803,15.32982,78.924,78.924,0,0,1-55.86852,0,55.15414,55.15414,0,0,1-21.803-15.32982L641.655,106.28951q-15.67977-18.39867-19.076-18.39706-3.418,0-3.40752,27.93425V264.35787a32.70376,32.70376,0,1,1-65.40732,0V65.40893q0-27.24243,15.67009-46.33132Q585.09947.01129,612.358,0a53.70812,53.70812,0,0,1,29.297,8.17612,123.00587,123.00587,0,0,1,23.84781,19.75814L822.20846,206.44452a72.20318,72.20318,0,0,0,8.51639,7.1537,16.75458,16.75458,0,0,0,21.12244,0,73.13889,73.13889,0,0,0,8.51638-7.1537L1016.38881,27.93426h.68054A71.19427,71.19427,0,0,1,1040.235,7.49558,61.20625,61.20625,0,0,1,1070.2141,0q27.24245,0,42.92381,19.07761,15.66525,19.08566,15.67008,46.33132Z"/>
        <path class="cls-1" d="M1252.119,174.08194a91.94988,91.94988,0,0,1-48.03428-48.03428,87.38371,87.38371,0,0,1-7.1537-35.42984,87.42784,87.42784,0,0,1,7.1537-35.42984A91.94978,91.94978,0,0,1,1252.119,7.1537,87.44078,87.44078,0,0,1,1287.54721,0H1701.1168a31.56683,31.56683,0,0,1,23.16566,9.54042,31.57059,31.57059,0,0,1,9.5388,23.16405,31.5417,31.5417,0,0,1-9.5388,23.16727,31.539,31.539,0,0,1-23.16566,9.53719H1286.18453a25.969,25.969,0,0,0-18.05519,7.1537,23.40061,23.40061,0,0,0-7.83423,18.05519,23.70035,23.70035,0,0,0,7.83423,17.71653,25.31848,25.31848,0,0,0,18.05519,7.49235h376.77706a89.9223,89.9223,0,0,1,35.7701,7.1537,90.11752,90.11752,0,0,1,48.37455,48.37617,89.85966,89.85966,0,0,1,7.15531,35.76849,87.38462,87.38462,0,0,1-7.15531,35.42984,92.46313,92.46313,0,0,1-19.41787,28.618,86.863,86.863,0,0,1-28.95668,19.0776,93.73816,93.73816,0,0,1-35.7701,6.81182H1250.07415a32.70456,32.70456,0,1,1,0-65.40893H1665.687a24.80586,24.80586,0,0,0,17.71492-7.1537,23.13694,23.13694,0,0,0,7.49558-17.37465,25.042,25.042,0,0,0-7.49558-18.39384,24.24588,24.24588,0,0,0-17.71492-7.49558H1287.54721A87.3872,87.3872,0,0,1,1252.119,174.08194Z"/>
      </g>
      <g>
        <path class="cls-1" d="M44.72439,365.56458c2.65039,0,3.97559.75684,5.67969,3.59668l36.73047,61.43848c.47314.75683.189,1.23046-.56836,1.23046H81.64383a1.26718,1.26718,0,0,1-1.3252-.75781l-9.37207-15.61914H16.41922L7.14187,431.07239a1.26717,1.26717,0,0,1-1.32519.75781H.79959c-.75733,0-1.04151-.47363-.56836-1.23046L36.9617,369.16126c1.60937-2.74512,3.02929-3.59668,5.20654-3.59668ZM19.54324,410.341h48.374L45.19754,372.28528a1.21236,1.21236,0,0,0-1.23047-.66211h-.47363a1.212,1.212,0,0,0-1.23047.66211Z"/>
        <path class="cls-1" d="M147.33719,365.56458c19.97412,0,28.11572,8.23535,28.11572,26.69531v12.875c0,18.459-8.1416,26.69531-28.11572,26.69531H104.64285a2.51,2.51,0,0,1-2.83984-2.83984V368.40442a2.51,2.51,0,0,1,2.83984-2.83984ZM108.24,424.82532c0,.75684.28418,1.13574.94677,1.13574h38.05567c15.71435,0,21.773-6.248,21.773-21.2998V392.73352c0-15.05175-6.0586-21.20507-21.773-21.20507H109.18679c-.66259,0-.94677.28418-.94677,1.041Z"/>
        <path class="cls-1" d="M190.97293,365.56458a1.40725,1.40725,0,0,1,1.32519.75684l35.1211,58.88183a1.236,1.236,0,0,0,1.13574.66309h.56836a1.284,1.284,0,0,0,1.23047-.66309l35.12109-58.88183a1.40726,1.40726,0,0,1,1.3252-.75684h5.01709c.75732,0,1.0415.56738.56836,1.32519l-36.73047,61.34278c-1.70411,2.83984-3.0293,3.59765-5.30127,3.59765h-2.46143c-2.65039,0-4.07031-.85156-5.67969-3.59765L185.4822,366.88977c-.47314-.75781-.189-1.32519.56836-1.32519Z"/>
        <path class="cls-1" d="M308.63992,365.56458c2.65039,0,3.97559.75684,5.67969,3.59668l36.73047,61.43848c.47314.75683.189,1.23046-.56836,1.23046h-4.92237a1.26718,1.26718,0,0,1-1.32519-.75781l-9.37207-15.61914H280.33474l-9.27734,15.61914a1.26718,1.26718,0,0,1-1.3252.75781h-5.01708c-.75733,0-1.04151-.47363-.56836-1.23046l36.73046-61.43848c1.60938-2.74512,3.0293-3.59668,5.20655-3.59668ZM283.45877,410.341h48.374l-22.71973-38.05567a1.212,1.212,0,0,0-1.23046-.66211H307.409a1.212,1.212,0,0,0-1.23047.66211Z"/>
        <path class="cls-1" d="M374.427,365.56458c2.46142,0,3.59766.47266,5.7749,2.74512l53.0127,56.7041a2.07551,2.07551,0,0,0,1.60937.66308h1.13574c.56788,0,.852-.28418.852-.94628v-58.125c0-.75684.28418-1.041,1.04151-1.041h4.25976c.6626,0,.94678.28418.94678,1.041v59.92382c0,3.97559-1.60937,5.30078-4.82812,5.30078H434.4451c-2.93457,0-3.6919-.47363-5.77442-2.74511L375.56326,372.38a1.88559,1.88559,0,0,0-1.51465-.66211h-1.13623c-.6626,0-.94629.28418-.94629.94629v58.21973c0,.6621-.28418.94628-.94678.94628h-4.26025c-.75684,0-1.041-.28418-1.041-.94628V370.96009c0-3.97559,1.60938-5.39551,4.82813-5.39551Z"/>
        <path class="cls-1" d="M529.86258,365.56458a.90786.90786,0,0,1,1.0415,1.041v3.97558a.90817.90817,0,0,1-1.0415,1.042h-42.126c-14.29443,0-19.40674,5.11133-19.40674,19.40625v15.33594c0,14.29395,5.11231,19.40625,19.40674,19.40625h42.126a.94729.94729,0,0,1,1.0415,1.041v4.07129c0,.6621-.37891.94628-1.0415.94628H487.54715c-18.55469,0-25.6543-6.8164-25.6543-24.99218V390.55579c0-18.17578,7.09961-24.99121,25.6543-24.99121Z"/>
        <path class="cls-1" d="M614.29959,365.56458c.6626,0,.94678.28418.94678,1.041v3.88085c0,.66309-.28418,1.042-.94678,1.042H573.02566c-14.29443,0-19.501,5.11132-19.501,19.40625v4.63867h60.30175c.6626,0,.94678.28418.94678.94629v3.4082c0,.66309-.28418.94629-.94678.94629H553.52469v5.58594c0,14.38867,5.20654,19.501,19.501,19.501h41.27393c.6626,0,.94678.28418.94678.94629v3.97657c0,.6621-.28418.94628-.94678.94628H572.93094c-18.55469,0-25.6543-6.8164-25.6543-24.99218V390.55579c0-18.17578,7.09961-24.99121,25.6543-24.99121Z"/>
        <path class="cls-1" d="M678.763,365.56458c19.97412,0,28.11572,8.23535,28.11572,26.69531v12.875c0,18.459-8.1416,26.69531-28.11572,26.69531H636.06863a2.51,2.51,0,0,1-2.83984-2.83984V368.40442a2.51,2.51,0,0,1,2.83984-2.83984ZM639.6658,424.82532c0,.75684.28418,1.13574.94678,1.13574h38.05566c15.71436,0,21.773-6.248,21.773-21.2998V392.73352c0-15.05175-6.05859-21.20507-21.773-21.20507H640.61258c-.6626,0-.94678.28418-.94678,1.041Z"/>
        <path class="cls-1" d="M771.33719,365.56458c3.21875,0,4.0708.66211,5.7749,3.69141l31.52344,55.85253a1.60426,1.60426,0,0,0,1.60937.94727h.75732a1.65578,1.65578,0,0,0,1.70411-.94727L844.22976,369.256c1.70411-2.93457,2.55616-3.69141,5.68018-3.69141h4.44922c3.59717,0,4.82763,1.51465,4.82763,5.39551v59.92383c0,.6621-.28369.94628-.94628.94628h-4.26026c-.6626,0-.94629-.28418-.94629-.94628V372.66419c0-.66211-.28418-.94629-.852-.94629h-1.231a1.39429,1.39429,0,0,0-1.51464.85156l-31.334,54.7168c-1.89355,3.31348-3.21875,4.54394-6.53222,4.54394h-1.9878c-3.31347,0-4.63867-1.23046-6.53174-4.54394l-31.33447-54.7168a1.3943,1.3943,0,0,0-1.51465-.85156H769.0657c-.66308,0-.94678.28418-.94678.94629v58.21973c0,.6621-.28418.94628-.94677.94628h-4.165c-.75782,0-1.04151-.28418-1.04151-.94628V370.96009c0-3.88086,1.23047-5.39551,4.82764-5.39551Z"/>
        <path class="cls-1" d="M884.07742,365.56458a.90753.90753,0,0,1,1.041,1.041v64.27832c0,.6621-.37842.94628-1.041.94628h-4.35449c-.75781,0-1.04151-.28418-1.04151-.94628V366.6056c0-.75684.2837-1.041,1.04151-1.041Z"/>
        <path class="cls-1" d="M971.82986,365.56458a.90786.90786,0,0,1,1.04151,1.041v3.97558a.90817.90817,0,0,1-1.04151,1.042h-42.126c-14.29443,0-19.40673,5.11133-19.40673,19.40625v15.33594c0,14.29395,5.1123,19.40625,19.40673,19.40625h42.126a.94729.94729,0,0,1,1.04151,1.041v4.07129c0,.6621-.37891.94628-1.04151.94628H929.51443c-18.5542,0-25.6543-6.8164-25.6543-24.99218V390.55579c0-18.17578,7.1001-24.99121,25.6543-24.99121Z"/>
        <path class="cls-1" d="M1042.16238,365.56458c13.916,0,19.40625,6.626,19.40625,19.12207v4.54395c0,11.64355-4.73291,18.08105-16.47168,18.93359l19.21729,22.34082a.80285.80285,0,0,1-.6626,1.32519h-5.11231a1.82115,1.82115,0,0,1-1.51464-.75781L1038.281,408.73157H996.43875v22.15235c0,.6621-.37842.94628-1.041.94628h-4.35449c-.75781,0-1.0415-.28418-1.0415-.94628v-62.4795a2.51,2.51,0,0,1,2.83984-2.83984Zm-45.72363,37.86621h44.77685c10.03467,0,14.01075-4.82812,14.01075-14.01074v-4.07031c0-9.18262-3.97608-13.916-14.01075-13.916H997.38553c-.6626,0-.94678.28418-.94678,1.041Z"/>
        <path class="cls-1" d="M1131.7117,365.56458c18.5542,0,25.65429,6.81543,25.65429,24.99121V406.838c0,18.17578-7.10009,24.99218-25.65429,24.99218h-28.30518c-18.55469,0-25.6543-6.8164-25.6543-24.99218V390.55579c0-18.17578,7.09961-24.99121,25.6543-24.99121Zm-47.52246,40.89551c0,14.38867,5.1123,19.501,19.40673,19.501h27.92627c14.29444,0,19.40625-5.1123,19.40625-19.501V390.9347c0-14.29493-5.11181-19.40625-19.40625-19.40625H1103.596c-14.29443,0-19.40673,5.11132-19.40673,19.40625Z"/>
        <path class="cls-1" d="M1277.10965,365.56458c.66308,0,.94677.28418.94677,1.041v3.88085c0,.66309-.28369,1.042-.94677,1.042h-50.646c-6.437,0-8.709,3.6914-8.709,9.27734v5.585c0,6.0586,2.65039,9.18262,8.709,9.18262h39.85449c9.65576,0,14.105,5.01758,14.105,14.29394v7.85743c0,8.33105-3.88134,14.10546-14.105,14.10546H1212.4534c-.75733,0-1.04151-.28418-1.04151-.94628v-3.97657c0-.66211.28418-.94629,1.04151-.94629h52.82324c6.53223,0,8.80371-3.78711,8.80371-9.37207v-6.53222c0-6.0586-2.65039-9.18262-8.80371-9.18262h-39.854c-9.56152,0-14.10546-5.0166-14.10546-14.29395v-6.8164c0-8.42481,3.97607-14.19922,14.20019-14.19922Z"/>
        <path class="cls-1" d="M1364.575,365.56458c.6626,0,.94678.28418.94678,1.041v3.88085c0,.66309-.28418,1.042-.94678,1.042h-41.27393c-14.29443,0-19.501,5.11132-19.501,19.40625v4.63867h60.30175c.6626,0,.94678.28418.94678.94629v3.4082c0,.66309-.28418.94629-.94678.94629h-60.30175v5.58594c0,14.38867,5.20654,19.501,19.501,19.501H1364.575c.6626,0,.94678.28418.94678.94629v3.97657c0,.6621-.28418.94628-.94678.94628h-41.36865c-18.55469,0-25.6543-6.8164-25.6543-24.99218V390.55579c0-18.17578,7.09961-24.99121,25.6543-24.99121Z"/>
        <path class="cls-1" d="M1435.66482,365.56458c13.916,0,19.40625,6.626,19.40625,19.12207v4.54395c0,11.64355-4.73291,18.08105-16.47168,18.93359l19.21729,22.34082a.80274.80274,0,0,1-.6626,1.32519h-5.1123a1.82045,1.82045,0,0,1-1.51465-.75781l-18.74366-22.34082h-41.84228v22.15235c0,.6621-.37842.94628-1.041.94628h-4.355c-.75683,0-1.041-.28418-1.041-.94628v-62.4795a2.51,2.51,0,0,1,2.83984-2.83984Zm-45.72363,37.86621H1434.718c10.03467,0,14.01075-4.82812,14.01075-14.01074v-4.07031c0-9.18262-3.97608-13.916-14.01075-13.916H1390.888c-.6626,0-.94678.28418-.94678,1.041Z"/>
        <path class="cls-1" d="M1469.36209,365.56458a1.40725,1.40725,0,0,1,1.32519.75684l35.1211,58.88183a1.23621,1.23621,0,0,0,1.13623.66309h.56787a1.28359,1.28359,0,0,0,1.23047-.66309l35.12109-58.88183a1.40726,1.40726,0,0,1,1.3252-.75684h5.01709c.75732,0,1.0415.56738.56836,1.32519l-36.73047,61.34278c-1.7041,2.83984-3.0293,3.59765-5.30127,3.59765h-2.46143c-2.65039,0-4.07031-.85156-5.67969-3.59765l-36.73046-61.34278c-.47315-.75781-.189-1.32519.56835-1.32519Z"/>
        <path class="cls-1" d="M1570.83914,365.56458a.90752.90752,0,0,1,1.041,1.041v64.27832c0,.6621-.37841.94628-1.041.94628h-4.35449c-.75782,0-1.04151-.28418-1.04151-.94628V366.6056c0-.75684.28369-1.041,1.04151-1.041Z"/>
        <path class="cls-1" d="M1658.59158,365.56458a.90786.90786,0,0,1,1.0415,1.041v3.97558a.90816.90816,0,0,1-1.0415,1.042h-42.126c-14.29443,0-19.40673,5.11133-19.40673,19.40625v15.33594c0,14.29395,5.1123,19.40625,19.40673,19.40625h42.126a.94729.94729,0,0,1,1.0415,1.041v4.07129c0,.6621-.3789.94628-1.0415.94628h-42.31543c-18.5542,0-25.6543-6.8164-25.6543-24.99218V390.55579c0-18.17578,7.1001-24.99121,25.6543-24.99121Z"/>
        <path class="cls-1" d="M1743.02859,365.56458c.66309,0,.94678.28418.94678,1.041v3.88085c0,.66309-.28369,1.042-.94678,1.042h-41.27392c-14.29444,0-19.501,5.11132-19.501,19.40625v4.63867h60.30176c.66259,0,.94677.28418.94677.94629v3.4082c0,.66309-.28418.94629-.94677.94629h-60.30176v5.58594c0,14.38867,5.20654,19.501,19.501,19.501h41.27392c.66309,0,.94678.28418.94678.94629v3.97657c0,.6621-.28369.94628-.94678.94628h-41.36865c-18.5542,0-25.6543-6.8164-25.6543-24.99218V390.55579c0-18.17578,7.1001-24.99121,25.6543-24.99121Z"/>
      </g>
    </g>
  </g>
</svg>
