<svg id="Capa_1" enable-background="new 0 0 512 512" height="512" viewBox="0 0 512 512" width="512" xmlns="http://www.w3.org/2000/svg"><g><path d="m476.773 126.324c-2.05-3.483-6.534-4.644-10.018-2.594-3.482 2.05-4.644 6.535-2.594 10.017 21.724 36.906 33.206 79.18 33.206 122.253 0 133.09-108.277 241.366-241.366 241.366s-241.367-108.276-241.367-241.366 108.276-241.366 241.366-241.366c74.914 0 144.333 33.926 190.457 93.078 2.484 3.187 7.082 3.754 10.269 1.271 3.186-2.485 3.756-7.082 1.27-10.269-23.432-30.051-53.785-54.907-87.777-71.881-35.655-17.805-74.084-26.833-114.219-26.833-68.38 0-132.667 26.629-181.019 74.981-48.353 48.352-74.981 112.639-74.981 181.019s26.628 132.667 74.981 181.019c48.352 48.352 112.639 74.981 181.019 74.981s132.667-26.629 181.019-74.981c48.353-48.352 74.981-112.639 74.981-181.019 0-45.682-12.181-90.523-35.227-129.676z"/><path d="m320.478 431.958c-27.681-4.105-53.604-16.43-75.362-33.868-45.124-33.679-85.691-73.167-120.571-117.366-2.505-3.173-7.106-3.713-10.277-1.211-3.172 2.504-3.714 7.104-1.211 10.276 35.672 45.202 77.158 85.585 123.306 120.028 27.217 21.512 60.833 36.662 95.847 37.674 24.271 0 47.946-9.622 65.325-27.001l28.592-28.591c9.131-9.131 9.131-23.987 0-33.118l-28.042-28.042c-2.858-2.857-7.49-2.857-10.348 0-2.857 2.857-2.857 7.49 0 10.347l28.042 28.042c3.408 3.27 3.408 9.154 0 12.423l-8.929 8.929-70.131-70.13 7.558-9.133c3.118-3.956 9.501-4.257 12.98-.611l6.976 6.975c2.856 2.857 7.489 2.857 10.347 0 2.857-2.858 2.857-7.49-.001-10.347l-6.975-6.975c-4.652-4.653-11.08-7.142-17.661-6.833-6.571.309-12.745 3.394-16.94 8.462l-34.364 41.528c-.252.305-.696.354-1.009.117l-18.45-13.982c-36.495-27.657-69.022-60.185-96.677-96.678l-13.982-18.448c-.239-.315-.188-.759.116-1.01l41.528-34.365c5.068-4.194 8.152-10.369 8.462-16.94.31-6.572-2.181-13.009-6.832-17.661l-58.523-58.523c-4.423-4.423-10.305-6.859-16.559-6.859-6.255 0-12.137 2.436-16.56 6.859l-28.59 28.591c-20.708 20.707-30.402 50.348-25.931 79.29 3.791 24.542 13.172 48.372 27.13 68.912 2.271 3.343 6.821 4.21 10.164 1.939 3.342-2.271 4.21-6.822 1.939-10.164-12.744-18.755-21.31-40.512-24.771-62.921-3.761-24.349 4.394-49.288 21.816-66.709l9.314-9.314 69.154 69.154-21.071 17.437c-6.359 5.263-7.436 14.54-2.45 21.122 36.235 50.942 80.989 95.702 131.935 131.932 6.528 4.964 15.83 3.943 21.121-2.449l17.436-21.07 69.154 69.154-9.315 9.315c-17.423 17.419-42.362 25.575-66.71 21.813zm-198.909-326.757 8.929-8.929c3.424-3.425 8.998-3.425 12.422 0l58.523 58.523c3.645 3.474 3.344 9.864-.611 12.979l-9.133 7.558z"/><path d="m393.875 258.896c3.872.772 7.82-1.817 8.563-5.81 7.883-41.153-5.076-83.386-34.663-112.974-29.589-29.588-71.821-42.546-112.974-34.663-3.969.761-6.57 4.594-5.81 8.563.761 3.97 4.603 6.568 8.563 5.81 36.386-6.972 73.719 4.484 99.873 30.638 26.155 26.154 37.608 63.49 30.639 99.873-.761 3.969 1.84 7.802 5.809 8.563z"/><path d="m352.677 253.865c3.842.888 7.871-1.577 8.734-5.549 6.395-28.673-2.173-58.176-22.918-78.922-20.746-20.745-50.25-29.311-78.923-22.918-3.944.88-6.428 4.79-5.549 8.734.879 3.945 4.79 6.427 8.734 5.549 23.755-5.299 48.203 1.797 65.388 18.982 17.186 17.185 24.283 41.631 18.984 65.39-.878 3.943 1.606 7.854 5.55 8.734z"/><path d="m309.357 248.455c3.709 1.338 7.995-.619 9.334-4.467 5.47-15.51 1.495-33.041-10.127-44.664-11.623-11.623-29.152-15.597-44.665-10.127-3.811 1.344-5.811 5.523-4.466 9.334 1.344 3.811 5.525 5.812 9.335 4.466 10.229-3.607 21.788-.987 29.448 6.674 7.662 7.662 10.282 19.221 6.675 29.449-1.346 3.811.655 7.99 4.466 9.335z"/></g></svg>